<?xml version="1.0" standalone="no"?>
<!DOCTYPE svg PUBLIC "-//W3C//DTD SVG 20010904//EN"
 "http://www.w3.org/TR/2001/REC-SVG-20010904/DTD/svg10.dtd">
<svg version="1.0" xmlns="http://www.w3.org/2000/svg"
 width="512.000000pt" height="512.000000pt" viewBox="0 0 512.000000 512.000000"
 preserveAspectRatio="xMidYMid meet">
<metadata>
Created by potrace 1.14, written by Peter Selinger 2001-2017
</metadata>
<g transform="translate(0.000000,512.000000) scale(0.100000,-0.100000)"
fill="#000000" stroke="none">
<path d="M0 5058 l0 -63 21 42 c14 29 33 48 62 62 l42 21 -62 0 -63 0 0 -62z"/>
<path d="M5037 5099 c29 -14 48 -33 62 -62 l21 -42 0 63 0 62 -62 0 -63 0 42
-21z"/>
<path d="M3308 3467 c-141 -40 -223 -172 -221 -357 2 -148 60 -260 164 -313
160 -82 339 -19 415 145 27 58 29 72 29 178 0 103 -3 121 -26 171 -15 31 -43
74 -63 97 -66 73 -196 107 -298 79z m179 -90 c74 -39 120 -116 130 -219 12
-136 -38 -251 -130 -293 -123 -58 -249 -6 -297 122 -25 68 -27 189 -3 258 19
58 83 126 133 142 44 15 128 10 167 -10z"/>
<path d="M860 3120 l0 -350 205 0 205 0 0 40 0 40 -160 0 -160 0 0 310 0 310
-45 0 -45 0 0 -350z"/>
<path d="M1410 3120 l0 -350 45 0 45 0 0 350 0 350 -45 0 -45 0 0 -350z"/>
<path d="M1680 3120 l0 -350 40 0 40 0 0 155 0 155 150 0 150 0 0 40 0 40
-150 0 -150 0 0 115 0 115 168 2 167 3 0 35 0 35 -207 3 -208 2 0 -350z"/>
<path d="M2250 3120 l0 -350 216 0 215 0 -3 38 -3 37 -172 3 -173 2 0 115 0
115 160 0 160 0 0 40 0 40 -160 0 -160 0 0 115 0 115 170 0 170 0 0 40 0 40
-210 0 -210 0 0 -350z"/>
<path d="M3850 3120 l0 -350 45 0 45 0 0 155 0 155 150 0 150 0 0 40 0 40
-150 0 -150 0 0 115 0 115 165 0 165 0 0 40 0 40 -210 0 -210 0 0 -350z"/>
<path d="M4354 2251 c-100 -26 -164 -99 -164 -188 0 -90 58 -147 184 -183 199
-57 246 -102 202 -189 -44 -83 -210 -102 -286 -31 -16 15 -30 37 -30 49 0 18
-6 21 -46 21 l-46 0 6 -32 c11 -53 51 -104 103 -129 57 -28 174 -38 237 -19
95 27 156 101 156 189 0 94 -60 153 -195 192 -114 32 -152 49 -179 76 -34 34
-35 81 -1 121 35 41 74 55 145 50 69 -5 107 -28 129 -76 13 -28 20 -32 53 -32
32 0 38 3 38 22 0 41 -46 103 -99 131 -54 30 -150 43 -207 28z"/>
<path d="M430 2210 l0 -40 110 0 110 0 0 -310 0 -310 45 0 45 0 0 310 0 309
108 3 107 3 0 35 0 35 -262 3 -263 2 0 -40z"/>
<path d="M1097 2243 c-12 -11 -8 -458 4 -513 14 -66 62 -127 124 -159 43 -23
62 -26 145 -26 85 0 100 3 141 27 115 68 129 114 129 435 l0 243 -45 0 -44 0
-3 -264 c-3 -249 -4 -266 -24 -292 -43 -58 -69 -69 -157 -69 -95 0 -134 20
-167 85 -18 36 -20 60 -20 290 l0 250 -38 0 c-21 0 -42 -3 -45 -7z"/>
<path d="M1820 1900 l0 -350 40 0 40 0 0 135 0 136 88 -3 87 -3 70 -132 70
-133 48 0 c26 0 47 3 47 8 -1 4 -34 67 -75 141 l-73 135 38 24 c59 39 85 93
85 177 -1 77 -16 117 -63 160 -44 41 -109 55 -264 55 l-138 0 0 -350z m328
250 c39 -24 54 -58 53 -123 0 -98 -47 -127 -201 -127 l-100 0 0 135 0 135 108
0 c89 0 112 -3 140 -20z"/>
<path d="M2400 2210 l0 -40 110 0 110 0 0 -310 0 -310 45 0 45 0 0 310 0 309
108 3 107 3 0 35 0 35 -262 3 -263 2 0 -40z"/>
<path d="M3067 2243 c-4 -3 -7 -161 -7 -350 l0 -343 205 0 205 0 0 40 0 40
-160 0 -160 0 0 310 0 310 -38 0 c-21 0 -42 -3 -45 -7z"/>
<path d="M3617 2243 c-4 -3 -7 -161 -7 -350 l0 -343 215 0 215 0 0 40 0 40
-170 0 -170 0 0 115 0 115 155 0 155 0 0 40 0 40 -155 0 -155 0 0 115 0 115
168 2 167 3 3 38 3 37 -209 0 c-115 0 -212 -3 -215 -7z"/>
<path d="M0 63 l0 -63 63 0 62 0 -42 21 c-29 14 -48 33 -62 62 l-21 42 0 -62z"/>
<path d="M5097 81 c-13 -28 -30 -46 -60 -60 l-42 -21 63 0 62 0 0 60 c0 33 -1
60 -2 60 -2 0 -11 -18 -21 -39z"/>
</g>
</svg>
